<mxfile host="app.diagrams.net" modified="2023-08-28T09:43:50.819Z" agent="Mozilla/5.0 (Windows NT 10.0; Win64; x64) AppleWebKit/537.36 (KHTML, like Gecko) Chrome/115.0.0.0 Safari/537.36" etag="TjKDiEZMo-n-LIui8FHd" version="21.6.8" type="device">
  <diagram id="R2lEEEUBdFMjLlhIrx00" name="Page-1">
    <mxGraphModel dx="2505" dy="2029" grid="1" gridSize="10" guides="1" tooltips="1" connect="1" arrows="1" fold="1" page="1" pageScale="1" pageWidth="850" pageHeight="1100" math="0" shadow="0" extFonts="Permanent Marker^https://fonts.googleapis.com/css?family=Permanent+Marker">
      <root>
        <mxCell id="0" />
        <mxCell id="1" parent="0" />
        <mxCell id="GVv9ok4yRNijuJ_Tkm2T-1" value="Ingredients" style="rounded=0;whiteSpace=wrap;html=1;fillColor=#dae8fc;strokeColor=#6c8ebf;" vertex="1" parent="1">
          <mxGeometry x="-230" y="-735" width="120" height="60" as="geometry" />
        </mxCell>
        <mxCell id="GVv9ok4yRNijuJ_Tkm2T-2" value="Drinks" style="rounded=0;whiteSpace=wrap;html=1;fillColor=#dae8fc;strokeColor=#6c8ebf;" vertex="1" parent="1">
          <mxGeometry x="840" y="-735" width="120" height="60" as="geometry" />
        </mxCell>
        <mxCell id="GVv9ok4yRNijuJ_Tkm2T-4" value="&lt;u&gt;ingredient_id&lt;/u&gt;" style="ellipse;whiteSpace=wrap;html=1;fillColor=#d5e8d4;strokeColor=#82b366;" vertex="1" parent="1">
          <mxGeometry x="-100" y="-685" width="90" height="40" as="geometry" />
        </mxCell>
        <mxCell id="GVv9ok4yRNijuJ_Tkm2T-5" value="Salad" style="rounded=0;whiteSpace=wrap;html=1;fillColor=#dae8fc;strokeColor=#6c8ebf;" vertex="1" parent="1">
          <mxGeometry x="-352.5" y="218.75" width="120" height="60" as="geometry" />
        </mxCell>
        <mxCell id="GVv9ok4yRNijuJ_Tkm2T-7" value="salad" style="ellipse;whiteSpace=wrap;html=1;fillColor=#f8cecc;strokeColor=#b85450;" vertex="1" parent="1">
          <mxGeometry x="-300" y="-655" width="90" height="40" as="geometry" />
        </mxCell>
        <mxCell id="GVv9ok4yRNijuJ_Tkm2T-8" value="fav" style="ellipse;whiteSpace=wrap;html=1;fillColor=#f8cecc;strokeColor=#b85450;" vertex="1" parent="1">
          <mxGeometry x="-180" y="-645" width="90" height="40" as="geometry" />
        </mxCell>
        <mxCell id="GVv9ok4yRNijuJ_Tkm2T-9" value="meat" style="ellipse;whiteSpace=wrap;html=1;fillColor=#f8cecc;strokeColor=#b85450;" vertex="1" parent="1">
          <mxGeometry x="-330" y="-725" width="90" height="40" as="geometry" />
        </mxCell>
        <mxCell id="GVv9ok4yRNijuJ_Tkm2T-10" value="bread" style="ellipse;whiteSpace=wrap;html=1;fillColor=#f8cecc;strokeColor=#b85450;" vertex="1" parent="1">
          <mxGeometry x="-270" y="-805" width="90" height="40" as="geometry" />
        </mxCell>
        <mxCell id="GVv9ok4yRNijuJ_Tkm2T-12" value="Fruit_And_Veg" style="rounded=0;whiteSpace=wrap;html=1;fillColor=#dae8fc;strokeColor=#6c8ebf;" vertex="1" parent="1">
          <mxGeometry x="-117.5" y="208.75" width="120" height="60" as="geometry" />
        </mxCell>
        <mxCell id="GVv9ok4yRNijuJ_Tkm2T-13" value="Meat" style="rounded=0;whiteSpace=wrap;html=1;fillColor=#dae8fc;strokeColor=#6c8ebf;" vertex="1" parent="1">
          <mxGeometry x="-352.5" y="66.25" width="120" height="60" as="geometry" />
        </mxCell>
        <mxCell id="GVv9ok4yRNijuJ_Tkm2T-14" value="Bread" style="rounded=0;whiteSpace=wrap;html=1;fillColor=#dae8fc;strokeColor=#6c8ebf;" vertex="1" parent="1">
          <mxGeometry x="-347.5" y="-88.75" width="120" height="60" as="geometry" />
        </mxCell>
        <mxCell id="GVv9ok4yRNijuJ_Tkm2T-15" value="&lt;u&gt;bread_id&lt;/u&gt;" style="ellipse;whiteSpace=wrap;html=1;fillColor=#d5e8d4;strokeColor=#82b366;" vertex="1" parent="1">
          <mxGeometry x="-277.5" y="-138.75" width="90" height="40" as="geometry" />
        </mxCell>
        <mxCell id="GVv9ok4yRNijuJ_Tkm2T-16" value="bread_type" style="ellipse;whiteSpace=wrap;html=1;fillColor=#d5e8d4;strokeColor=#82b366;fontStyle=0" vertex="1" parent="1">
          <mxGeometry x="-377.5" y="-138.75" width="90" height="40" as="geometry" />
        </mxCell>
        <mxCell id="GVv9ok4yRNijuJ_Tkm2T-17" value="&lt;u&gt;meat_id&lt;/u&gt;" style="ellipse;whiteSpace=wrap;html=1;fillColor=#d5e8d4;strokeColor=#82b366;" vertex="1" parent="1">
          <mxGeometry x="-282.5" y="16.25" width="90" height="40" as="geometry" />
        </mxCell>
        <mxCell id="GVv9ok4yRNijuJ_Tkm2T-19" value="meat_type" style="ellipse;whiteSpace=wrap;html=1;fillColor=#d5e8d4;strokeColor=#82b366;" vertex="1" parent="1">
          <mxGeometry x="-382.5" y="16.25" width="90" height="40" as="geometry" />
        </mxCell>
        <mxCell id="GVv9ok4yRNijuJ_Tkm2T-20" value="fav_type" style="ellipse;whiteSpace=wrap;html=1;fillColor=#d5e8d4;strokeColor=#82b366;" vertex="1" parent="1">
          <mxGeometry x="-47.5" y="158.75" width="90" height="40" as="geometry" />
        </mxCell>
        <mxCell id="GVv9ok4yRNijuJ_Tkm2T-21" value="&lt;u&gt;fav_id&lt;/u&gt;" style="ellipse;whiteSpace=wrap;html=1;fillColor=#d5e8d4;strokeColor=#82b366;" vertex="1" parent="1">
          <mxGeometry x="-157.5" y="158.75" width="90" height="40" as="geometry" />
        </mxCell>
        <mxCell id="GVv9ok4yRNijuJ_Tkm2T-22" value="&lt;u&gt;salad_id&lt;/u&gt;" style="ellipse;whiteSpace=wrap;html=1;fillColor=#d5e8d4;strokeColor=#82b366;" vertex="1" parent="1">
          <mxGeometry x="-372.5" y="168.75" width="90" height="40" as="geometry" />
        </mxCell>
        <mxCell id="GVv9ok4yRNijuJ_Tkm2T-23" value="salad_type" style="ellipse;whiteSpace=wrap;html=1;fillColor=#d5e8d4;strokeColor=#82b366;" vertex="1" parent="1">
          <mxGeometry x="-282.5" y="168.75" width="90" height="40" as="geometry" />
        </mxCell>
        <mxCell id="GVv9ok4yRNijuJ_Tkm2T-24" value="cheese" style="ellipse;whiteSpace=wrap;html=1;fillColor=#f8cecc;strokeColor=#b85450;" vertex="1" parent="1">
          <mxGeometry x="-170" y="-805" width="90" height="40" as="geometry" />
        </mxCell>
        <mxCell id="GVv9ok4yRNijuJ_Tkm2T-25" value="Cheese" style="rounded=0;whiteSpace=wrap;html=1;fillColor=#dae8fc;strokeColor=#6c8ebf;" vertex="1" parent="1">
          <mxGeometry x="-117.5" y="-88.75" width="120" height="60" as="geometry" />
        </mxCell>
        <mxCell id="GVv9ok4yRNijuJ_Tkm2T-26" value="&lt;u&gt;cheese_id&lt;/u&gt;" style="ellipse;whiteSpace=wrap;html=1;fillColor=#d5e8d4;strokeColor=#82b366;" vertex="1" parent="1">
          <mxGeometry x="-147.5" y="-138.75" width="90" height="40" as="geometry" />
        </mxCell>
        <mxCell id="GVv9ok4yRNijuJ_Tkm2T-27" value="cheese_type" style="ellipse;whiteSpace=wrap;html=1;fillColor=#d5e8d4;strokeColor=#82b366;" vertex="1" parent="1">
          <mxGeometry x="-47.5" y="-138.75" width="90" height="40" as="geometry" />
        </mxCell>
        <mxCell id="GVv9ok4yRNijuJ_Tkm2T-28" value="dressing_and_dip" style="ellipse;whiteSpace=wrap;html=1;fillColor=#f8cecc;strokeColor=#b85450;" vertex="1" parent="1">
          <mxGeometry x="-100" y="-765" width="90" height="40" as="geometry" />
        </mxCell>
        <mxCell id="GVv9ok4yRNijuJ_Tkm2T-30" value="Dressing_And_Dip" style="rounded=0;whiteSpace=wrap;html=1;fillColor=#dae8fc;strokeColor=#6c8ebf;" vertex="1" parent="1">
          <mxGeometry x="-112.5" y="61.25" width="120" height="60" as="geometry" />
        </mxCell>
        <mxCell id="GVv9ok4yRNijuJ_Tkm2T-31" value="&lt;u&gt;dad_id&lt;/u&gt;" style="ellipse;whiteSpace=wrap;html=1;fillColor=#d5e8d4;strokeColor=#82b366;" vertex="1" parent="1">
          <mxGeometry x="-152.5" y="11.25" width="90" height="40" as="geometry" />
        </mxCell>
        <mxCell id="GVv9ok4yRNijuJ_Tkm2T-32" value="dad_type" style="ellipse;whiteSpace=wrap;html=1;fillColor=#d5e8d4;strokeColor=#82b366;" vertex="1" parent="1">
          <mxGeometry x="-52.5" y="11.25" width="90" height="40" as="geometry" />
        </mxCell>
        <mxCell id="GVv9ok4yRNijuJ_Tkm2T-33" value="&lt;u&gt;drikkevare_id&lt;/u&gt;" style="ellipse;whiteSpace=wrap;html=1;fillColor=#d5e8d4;strokeColor=#82b366;" vertex="1" parent="1">
          <mxGeometry x="720" y="-775" width="90" height="40" as="geometry" />
        </mxCell>
        <mxCell id="GVv9ok4yRNijuJ_Tkm2T-34" value="water" style="ellipse;whiteSpace=wrap;html=1;fillColor=#f8cecc;strokeColor=#b85450;" vertex="1" parent="1">
          <mxGeometry x="810" y="-800" width="90" height="40" as="geometry" />
        </mxCell>
        <mxCell id="GVv9ok4yRNijuJ_Tkm2T-35" value="juice" style="ellipse;whiteSpace=wrap;html=1;fillColor=#f8cecc;strokeColor=#b85450;" vertex="1" parent="1">
          <mxGeometry x="910" y="-800" width="90" height="40" as="geometry" />
        </mxCell>
        <mxCell id="GVv9ok4yRNijuJ_Tkm2T-36" value="soda" style="ellipse;whiteSpace=wrap;html=1;fillColor=#f8cecc;strokeColor=#b85450;" vertex="1" parent="1">
          <mxGeometry x="980" y="-760" width="90" height="40" as="geometry" />
        </mxCell>
        <mxCell id="GVv9ok4yRNijuJ_Tkm2T-37" value="milkshake" style="ellipse;whiteSpace=wrap;html=1;fillColor=#f8cecc;strokeColor=#b85450;" vertex="1" parent="1">
          <mxGeometry x="800" y="-662.5" width="90" height="40" as="geometry" />
        </mxCell>
        <mxCell id="GVv9ok4yRNijuJ_Tkm2T-38" value="coffee" style="ellipse;whiteSpace=wrap;html=1;fillColor=#f8cecc;strokeColor=#b85450;" vertex="1" parent="1">
          <mxGeometry x="915" y="-657.5" width="90" height="40" as="geometry" />
        </mxCell>
        <mxCell id="GVv9ok4yRNijuJ_Tkm2T-39" value="Water" style="rounded=0;whiteSpace=wrap;html=1;fillColor=#dae8fc;strokeColor=#6c8ebf;" vertex="1" parent="1">
          <mxGeometry x="770" y="-222.5" width="120" height="60" as="geometry" />
        </mxCell>
        <mxCell id="GVv9ok4yRNijuJ_Tkm2T-40" value="Soda" style="rounded=0;whiteSpace=wrap;html=1;fillColor=#dae8fc;strokeColor=#6c8ebf;" vertex="1" parent="1">
          <mxGeometry x="740" y="-52.5" width="120" height="60" as="geometry" />
        </mxCell>
        <mxCell id="GVv9ok4yRNijuJ_Tkm2T-41" value="Milkshake" style="rounded=0;whiteSpace=wrap;html=1;fillColor=#dae8fc;strokeColor=#6c8ebf;" vertex="1" parent="1">
          <mxGeometry x="770" y="127.5" width="120" height="60" as="geometry" />
        </mxCell>
        <mxCell id="GVv9ok4yRNijuJ_Tkm2T-42" value="Coffee" style="rounded=0;whiteSpace=wrap;html=1;fillColor=#dae8fc;strokeColor=#6c8ebf;" vertex="1" parent="1">
          <mxGeometry x="1090" y="127.5" width="120" height="60" as="geometry" />
        </mxCell>
        <mxCell id="GVv9ok4yRNijuJ_Tkm2T-43" value="Juice" style="rounded=0;whiteSpace=wrap;html=1;fillColor=#dae8fc;strokeColor=#6c8ebf;" vertex="1" parent="1">
          <mxGeometry x="1090" y="-202.5" width="120" height="60" as="geometry" />
        </mxCell>
        <mxCell id="GVv9ok4yRNijuJ_Tkm2T-44" value="&lt;u&gt;milkshake_id&lt;/u&gt;" style="ellipse;whiteSpace=wrap;html=1;fillColor=#d5e8d4;strokeColor=#82b366;" vertex="1" parent="1">
          <mxGeometry x="715" y="77.5" width="90" height="40" as="geometry" />
        </mxCell>
        <mxCell id="GVv9ok4yRNijuJ_Tkm2T-47" value="&lt;u&gt;soda_id&lt;/u&gt;" style="ellipse;whiteSpace=wrap;html=1;fillColor=#d5e8d4;strokeColor=#82b366;" vertex="1" parent="1">
          <mxGeometry x="720" y="-102.5" width="90" height="40" as="geometry" />
        </mxCell>
        <mxCell id="GVv9ok4yRNijuJ_Tkm2T-49" value="frappe" style="ellipse;whiteSpace=wrap;html=1;fillColor=#f8cecc;strokeColor=#b85450;" vertex="1" parent="1">
          <mxGeometry x="970" y="-705" width="90" height="40" as="geometry" />
        </mxCell>
        <mxCell id="GVv9ok4yRNijuJ_Tkm2T-50" value="Frappe" style="rounded=0;whiteSpace=wrap;html=1;fillColor=#dae8fc;strokeColor=#6c8ebf;" vertex="1" parent="1">
          <mxGeometry x="1075" y="-47.5" width="120" height="60" as="geometry" />
        </mxCell>
        <mxCell id="GVv9ok4yRNijuJ_Tkm2T-51" value="&lt;u&gt;frappe_id&lt;/u&gt;" style="ellipse;whiteSpace=wrap;html=1;fillColor=#d5e8d4;strokeColor=#82b366;" vertex="1" parent="1">
          <mxGeometry x="1030" y="-97.5" width="90" height="40" as="geometry" />
        </mxCell>
        <mxCell id="GVv9ok4yRNijuJ_Tkm2T-56" value="&lt;u&gt;water_id&lt;/u&gt;" style="ellipse;whiteSpace=wrap;html=1;fillColor=#d5e8d4;strokeColor=#82b366;" vertex="1" parent="1">
          <mxGeometry x="735" y="-272.5" width="90" height="40" as="geometry" />
        </mxCell>
        <mxCell id="GVv9ok4yRNijuJ_Tkm2T-58" value="&lt;u&gt;juice_id&lt;/u&gt;" style="ellipse;whiteSpace=wrap;html=1;fillColor=#d5e8d4;strokeColor=#82b366;" vertex="1" parent="1">
          <mxGeometry x="1050" y="-252.5" width="90" height="40" as="geometry" />
        </mxCell>
        <mxCell id="GVv9ok4yRNijuJ_Tkm2T-59" value="flavour" style="ellipse;whiteSpace=wrap;html=1;fillColor=#d5e8d4;strokeColor=#82b366;" vertex="1" parent="1">
          <mxGeometry x="1140" y="-262.5" width="90" height="40" as="geometry" />
        </mxCell>
        <mxCell id="GVv9ok4yRNijuJ_Tkm2T-60" value="litres" style="ellipse;whiteSpace=wrap;html=1;fillColor=#d5e8d4;strokeColor=#82b366;" vertex="1" parent="1">
          <mxGeometry x="1210" y="-222.5" width="90" height="40" as="geometry" />
        </mxCell>
        <mxCell id="GVv9ok4yRNijuJ_Tkm2T-61" value="&lt;u&gt;coffee_id&lt;/u&gt;" style="ellipse;whiteSpace=wrap;html=1;fillColor=#d5e8d4;strokeColor=#82b366;" vertex="1" parent="1">
          <mxGeometry x="1060" y="77.5" width="90" height="40" as="geometry" />
        </mxCell>
        <mxCell id="GVv9ok4yRNijuJ_Tkm2T-62" value="coffee_type" style="ellipse;whiteSpace=wrap;html=1;fillColor=#d5e8d4;strokeColor=#82b366;" vertex="1" parent="1">
          <mxGeometry x="1160" y="77.5" width="90" height="40" as="geometry" />
        </mxCell>
        <mxCell id="GVv9ok4yRNijuJ_Tkm2T-63" value="Service_Items" style="rounded=0;whiteSpace=wrap;html=1;fillColor=#dae8fc;strokeColor=#6c8ebf;" vertex="1" parent="1">
          <mxGeometry x="235" y="200" width="120" height="60" as="geometry" />
        </mxCell>
        <mxCell id="GVv9ok4yRNijuJ_Tkm2T-64" value="&lt;u&gt;item_id&lt;/u&gt;" style="ellipse;whiteSpace=wrap;html=1;fillColor=#d5e8d4;strokeColor=#82b366;" vertex="1" parent="1">
          <mxGeometry x="205" y="150" width="90" height="40" as="geometry" />
        </mxCell>
        <mxCell id="GVv9ok4yRNijuJ_Tkm2T-65" value="bags" style="ellipse;whiteSpace=wrap;html=1;fillColor=#d5e8d4;strokeColor=#82b366;" vertex="1" parent="1">
          <mxGeometry x="305" y="150" width="90" height="40" as="geometry" />
        </mxCell>
        <mxCell id="GVv9ok4yRNijuJ_Tkm2T-66" value="straws" style="ellipse;whiteSpace=wrap;html=1;fillColor=#d5e8d4;strokeColor=#82b366;" vertex="1" parent="1">
          <mxGeometry x="365" y="190" width="90" height="40" as="geometry" />
        </mxCell>
        <mxCell id="GVv9ok4yRNijuJ_Tkm2T-67" value="cups" style="ellipse;whiteSpace=wrap;html=1;fillColor=#d5e8d4;strokeColor=#82b366;" vertex="1" parent="1">
          <mxGeometry x="295" y="270" width="90" height="40" as="geometry" />
        </mxCell>
        <mxCell id="GVv9ok4yRNijuJ_Tkm2T-68" value="lids" style="ellipse;whiteSpace=wrap;html=1;fillColor=#d5e8d4;strokeColor=#82b366;" vertex="1" parent="1">
          <mxGeometry x="195" y="270" width="90" height="40" as="geometry" />
        </mxCell>
        <mxCell id="GVv9ok4yRNijuJ_Tkm2T-69" value="trays" style="ellipse;whiteSpace=wrap;html=1;fillColor=#d5e8d4;strokeColor=#82b366;" vertex="1" parent="1">
          <mxGeometry x="355" y="230" width="90" height="40" as="geometry" />
        </mxCell>
        <mxCell id="GVv9ok4yRNijuJ_Tkm2T-70" value="Sides" style="rounded=0;whiteSpace=wrap;html=1;fillColor=#dae8fc;strokeColor=#6c8ebf;" vertex="1" parent="1">
          <mxGeometry x="270" y="-68.75" width="120" height="60" as="geometry" />
        </mxCell>
        <mxCell id="GVv9ok4yRNijuJ_Tkm2T-71" value="&lt;u&gt;side_id&lt;/u&gt;" style="ellipse;whiteSpace=wrap;html=1;fillColor=#d5e8d4;strokeColor=#82b366;" vertex="1" parent="1">
          <mxGeometry x="220" y="-108.75" width="90" height="40" as="geometry" />
        </mxCell>
        <mxCell id="GVv9ok4yRNijuJ_Tkm2T-73" value="name" style="ellipse;whiteSpace=wrap;html=1;fillColor=#d5e8d4;strokeColor=#82b366;" vertex="1" parent="1">
          <mxGeometry x="310" y="-108.75" width="90" height="40" as="geometry" />
        </mxCell>
        <mxCell id="GVv9ok4yRNijuJ_Tkm2T-74" value="amount" style="ellipse;whiteSpace=wrap;html=1;fillColor=#d5e8d4;strokeColor=#82b366;" vertex="1" parent="1">
          <mxGeometry x="390" y="-78.75" width="90" height="40" as="geometry" />
        </mxCell>
        <mxCell id="GVv9ok4yRNijuJ_Tkm2T-75" value="brand" style="ellipse;whiteSpace=wrap;html=1;fillColor=#d5e8d4;strokeColor=#82b366;" vertex="1" parent="1">
          <mxGeometry x="900" y="-232.5" width="90" height="40" as="geometry" />
        </mxCell>
        <mxCell id="GVv9ok4yRNijuJ_Tkm2T-77" value="Orders" style="rounded=0;whiteSpace=wrap;html=1;fillColor=#dae8fc;strokeColor=#6c8ebf;" vertex="1" parent="1">
          <mxGeometry x="330" y="-735" width="120" height="60" as="geometry" />
        </mxCell>
        <mxCell id="GVv9ok4yRNijuJ_Tkm2T-78" value="&lt;u&gt;order_id&lt;/u&gt;" style="ellipse;whiteSpace=wrap;html=1;fillColor=#d5e8d4;strokeColor=#82b366;" vertex="1" parent="1">
          <mxGeometry x="220" y="-775" width="90" height="40" as="geometry" />
        </mxCell>
        <mxCell id="GVv9ok4yRNijuJ_Tkm2T-79" value="" style="endArrow=none;html=1;rounded=0;exitX=0.5;exitY=1;exitDx=0;exitDy=0;entryX=0.25;entryY=0;entryDx=0;entryDy=0;" edge="1" parent="1" source="GVv9ok4yRNijuJ_Tkm2T-10" target="GVv9ok4yRNijuJ_Tkm2T-1">
          <mxGeometry width="50" height="50" relative="1" as="geometry">
            <mxPoint x="270" y="-655" as="sourcePoint" />
            <mxPoint x="320" y="-705" as="targetPoint" />
          </mxGeometry>
        </mxCell>
        <mxCell id="GVv9ok4yRNijuJ_Tkm2T-80" value="" style="endArrow=none;html=1;rounded=0;exitX=0;exitY=1;exitDx=0;exitDy=0;entryX=0.5;entryY=0;entryDx=0;entryDy=0;" edge="1" parent="1" source="GVv9ok4yRNijuJ_Tkm2T-24" target="GVv9ok4yRNijuJ_Tkm2T-1">
          <mxGeometry width="50" height="50" relative="1" as="geometry">
            <mxPoint x="-215" y="-755" as="sourcePoint" />
            <mxPoint x="-190" y="-725" as="targetPoint" />
          </mxGeometry>
        </mxCell>
        <mxCell id="GVv9ok4yRNijuJ_Tkm2T-81" value="" style="endArrow=none;html=1;rounded=0;exitX=0;exitY=0;exitDx=0;exitDy=0;entryX=1;entryY=0.75;entryDx=0;entryDy=0;" edge="1" parent="1" source="GVv9ok4yRNijuJ_Tkm2T-4" target="GVv9ok4yRNijuJ_Tkm2T-1">
          <mxGeometry width="50" height="50" relative="1" as="geometry">
            <mxPoint x="-205" y="-745" as="sourcePoint" />
            <mxPoint x="-180" y="-715" as="targetPoint" />
          </mxGeometry>
        </mxCell>
        <mxCell id="GVv9ok4yRNijuJ_Tkm2T-82" value="" style="endArrow=none;html=1;rounded=0;exitX=0.75;exitY=1;exitDx=0;exitDy=0;entryX=0.578;entryY=0;entryDx=0;entryDy=0;entryPerimeter=0;" edge="1" parent="1" source="GVv9ok4yRNijuJ_Tkm2T-1">
          <mxGeometry width="50" height="50" relative="1" as="geometry">
            <mxPoint x="-195" y="-735" as="sourcePoint" />
            <mxPoint x="-137.98000000000002" y="-645" as="targetPoint" />
          </mxGeometry>
        </mxCell>
        <mxCell id="GVv9ok4yRNijuJ_Tkm2T-83" value="" style="endArrow=none;html=1;rounded=0;exitX=0.25;exitY=1;exitDx=0;exitDy=0;entryX=1;entryY=0;entryDx=0;entryDy=0;" edge="1" parent="1" source="GVv9ok4yRNijuJ_Tkm2T-1" target="GVv9ok4yRNijuJ_Tkm2T-7">
          <mxGeometry width="50" height="50" relative="1" as="geometry">
            <mxPoint x="-185" y="-725" as="sourcePoint" />
            <mxPoint x="-160" y="-695" as="targetPoint" />
          </mxGeometry>
        </mxCell>
        <mxCell id="GVv9ok4yRNijuJ_Tkm2T-84" value="" style="endArrow=none;html=1;rounded=0;exitX=1;exitY=0.5;exitDx=0;exitDy=0;entryX=0;entryY=0.5;entryDx=0;entryDy=0;" edge="1" parent="1" source="GVv9ok4yRNijuJ_Tkm2T-9" target="GVv9ok4yRNijuJ_Tkm2T-1">
          <mxGeometry width="50" height="50" relative="1" as="geometry">
            <mxPoint x="-175" y="-715" as="sourcePoint" />
            <mxPoint x="-150" y="-685" as="targetPoint" />
          </mxGeometry>
        </mxCell>
        <mxCell id="GVv9ok4yRNijuJ_Tkm2T-85" value="" style="endArrow=none;html=1;rounded=0;exitX=1;exitY=0.5;exitDx=0;exitDy=0;entryX=0;entryY=1;entryDx=0;entryDy=0;" edge="1" parent="1" source="GVv9ok4yRNijuJ_Tkm2T-1" target="GVv9ok4yRNijuJ_Tkm2T-28">
          <mxGeometry width="50" height="50" relative="1" as="geometry">
            <mxPoint x="-165" y="-705" as="sourcePoint" />
            <mxPoint x="-140" y="-675" as="targetPoint" />
          </mxGeometry>
        </mxCell>
        <mxCell id="GVv9ok4yRNijuJ_Tkm2T-86" value="TABLE" style="rounded=0;whiteSpace=wrap;html=1;fillColor=#dae8fc;strokeColor=#6c8ebf;" vertex="1" parent="1">
          <mxGeometry x="-350" y="-940" width="120" height="60" as="geometry" />
        </mxCell>
        <mxCell id="GVv9ok4yRNijuJ_Tkm2T-87" value="&lt;u&gt;PRIMARY_KEY&lt;/u&gt;" style="ellipse;whiteSpace=wrap;html=1;fillColor=#d5e8d4;strokeColor=#82b366;" vertex="1" parent="1">
          <mxGeometry x="-220" y="-930" width="90" height="40" as="geometry" />
        </mxCell>
        <mxCell id="GVv9ok4yRNijuJ_Tkm2T-88" value="ATTRIBUTE" style="ellipse;whiteSpace=wrap;html=1;fillColor=#d5e8d4;strokeColor=#82b366;" vertex="1" parent="1">
          <mxGeometry x="-20" y="-930" width="90" height="40" as="geometry" />
        </mxCell>
        <mxCell id="GVv9ok4yRNijuJ_Tkm2T-89" value="FOREIGN_KEY" style="ellipse;whiteSpace=wrap;html=1;fillColor=#f8cecc;strokeColor=#b85450;" vertex="1" parent="1">
          <mxGeometry x="-120" y="-930" width="90" height="40" as="geometry" />
        </mxCell>
        <mxCell id="GVv9ok4yRNijuJ_Tkm2T-91" value="" style="endArrow=none;html=1;rounded=0;exitX=0.5;exitY=1;exitDx=0;exitDy=0;entryX=0.6;entryY=0.008;entryDx=0;entryDy=0;entryPerimeter=0;" edge="1" parent="1" source="GVv9ok4yRNijuJ_Tkm2T-35" target="GVv9ok4yRNijuJ_Tkm2T-2">
          <mxGeometry width="50" height="50" relative="1" as="geometry">
            <mxPoint x="920" y="-755" as="sourcePoint" />
            <mxPoint x="37.01999999999998" y="-1085" as="targetPoint" />
          </mxGeometry>
        </mxCell>
        <mxCell id="GVv9ok4yRNijuJ_Tkm2T-92" value="" style="endArrow=none;html=1;rounded=0;exitX=0.5;exitY=1;exitDx=0;exitDy=0;entryX=0.25;entryY=0;entryDx=0;entryDy=0;" edge="1" parent="1" source="GVv9ok4yRNijuJ_Tkm2T-34" target="GVv9ok4yRNijuJ_Tkm2T-2">
          <mxGeometry width="50" height="50" relative="1" as="geometry">
            <mxPoint x="930" y="-745" as="sourcePoint" />
            <mxPoint x="917" y="-727" as="targetPoint" />
          </mxGeometry>
        </mxCell>
        <mxCell id="GVv9ok4yRNijuJ_Tkm2T-93" value="" style="endArrow=none;html=1;rounded=0;exitX=0;exitY=1;exitDx=0;exitDy=0;entryX=1;entryY=0.25;entryDx=0;entryDy=0;" edge="1" parent="1" source="GVv9ok4yRNijuJ_Tkm2T-36" target="GVv9ok4yRNijuJ_Tkm2T-2">
          <mxGeometry width="50" height="50" relative="1" as="geometry">
            <mxPoint x="940" y="-735" as="sourcePoint" />
            <mxPoint x="927" y="-717" as="targetPoint" />
          </mxGeometry>
        </mxCell>
        <mxCell id="GVv9ok4yRNijuJ_Tkm2T-94" value="" style="endArrow=none;html=1;rounded=0;exitX=0;exitY=0;exitDx=0;exitDy=0;entryX=1;entryY=0.5;entryDx=0;entryDy=0;" edge="1" parent="1" source="GVv9ok4yRNijuJ_Tkm2T-49" target="GVv9ok4yRNijuJ_Tkm2T-2">
          <mxGeometry width="50" height="50" relative="1" as="geometry">
            <mxPoint x="950" y="-725" as="sourcePoint" />
            <mxPoint x="1015" y="-705" as="targetPoint" />
          </mxGeometry>
        </mxCell>
        <mxCell id="GVv9ok4yRNijuJ_Tkm2T-96" value="" style="endArrow=none;html=1;rounded=0;entryX=0.75;entryY=1;entryDx=0;entryDy=0;" edge="1" parent="1" source="GVv9ok4yRNijuJ_Tkm2T-38" target="GVv9ok4yRNijuJ_Tkm2T-2">
          <mxGeometry width="50" height="50" relative="1" as="geometry">
            <mxPoint x="960" y="-715" as="sourcePoint" />
            <mxPoint x="947" y="-697" as="targetPoint" />
          </mxGeometry>
        </mxCell>
        <mxCell id="GVv9ok4yRNijuJ_Tkm2T-97" value="" style="endArrow=none;html=1;rounded=0;exitX=0.25;exitY=1;exitDx=0;exitDy=0;entryX=0.5;entryY=0;entryDx=0;entryDy=0;" edge="1" parent="1" source="GVv9ok4yRNijuJ_Tkm2T-2" target="GVv9ok4yRNijuJ_Tkm2T-37">
          <mxGeometry width="50" height="50" relative="1" as="geometry">
            <mxPoint x="970" y="-705" as="sourcePoint" />
            <mxPoint x="957" y="-687" as="targetPoint" />
          </mxGeometry>
        </mxCell>
        <mxCell id="GVv9ok4yRNijuJ_Tkm2T-98" value="" style="endArrow=none;html=1;rounded=0;exitX=0;exitY=0.5;exitDx=0;exitDy=0;entryX=1;entryY=0.5;entryDx=0;entryDy=0;" edge="1" parent="1" source="GVv9ok4yRNijuJ_Tkm2T-2" target="GVv9ok4yRNijuJ_Tkm2T-33">
          <mxGeometry width="50" height="50" relative="1" as="geometry">
            <mxPoint x="980" y="-695" as="sourcePoint" />
            <mxPoint x="967" y="-677" as="targetPoint" />
          </mxGeometry>
        </mxCell>
        <mxCell id="GVv9ok4yRNijuJ_Tkm2T-101" value="ingredients" style="ellipse;whiteSpace=wrap;html=1;fillColor=#f8cecc;strokeColor=#b85450;" vertex="1" parent="1">
          <mxGeometry x="330" y="-830" width="90" height="40" as="geometry" />
        </mxCell>
        <mxCell id="GVv9ok4yRNijuJ_Tkm2T-102" value="drinks" style="ellipse;whiteSpace=wrap;html=1;fillColor=#f8cecc;strokeColor=#b85450;" vertex="1" parent="1">
          <mxGeometry x="445" y="-800" width="90" height="40" as="geometry" />
        </mxCell>
        <mxCell id="GVv9ok4yRNijuJ_Tkm2T-103" value="service_items" style="ellipse;whiteSpace=wrap;html=1;fillColor=#f8cecc;strokeColor=#b85450;" vertex="1" parent="1">
          <mxGeometry x="400" y="-655" width="90" height="40" as="geometry" />
        </mxCell>
        <mxCell id="GVv9ok4yRNijuJ_Tkm2T-104" value="sides" style="ellipse;whiteSpace=wrap;html=1;fillColor=#f8cecc;strokeColor=#b85450;" vertex="1" parent="1">
          <mxGeometry x="280" y="-655" width="90" height="40" as="geometry" />
        </mxCell>
        <mxCell id="GVv9ok4yRNijuJ_Tkm2T-107" value="have" style="rhombus;whiteSpace=wrap;html=1;fillColor=#ffe6cc;strokeColor=#d79b00;" vertex="1" parent="1">
          <mxGeometry x="600" y="-745" width="80" height="80" as="geometry" />
        </mxCell>
        <mxCell id="GVv9ok4yRNijuJ_Tkm2T-108" value="have" style="rhombus;whiteSpace=wrap;html=1;fillColor=#ffe6cc;strokeColor=#d79b00;" vertex="1" parent="1">
          <mxGeometry x="70" y="-745" width="80" height="80" as="geometry" />
        </mxCell>
        <mxCell id="GVv9ok4yRNijuJ_Tkm2T-109" value="" style="endArrow=none;html=1;rounded=0;entryX=1;entryY=0.5;entryDx=0;entryDy=0;exitX=0;exitY=0.5;exitDx=0;exitDy=0;" edge="1" parent="1" source="GVv9ok4yRNijuJ_Tkm2T-77" target="GVv9ok4yRNijuJ_Tkm2T-108">
          <mxGeometry width="50" height="50" relative="1" as="geometry">
            <mxPoint x="370" y="-490" as="sourcePoint" />
            <mxPoint x="420" y="-540" as="targetPoint" />
          </mxGeometry>
        </mxCell>
        <mxCell id="GVv9ok4yRNijuJ_Tkm2T-110" value="" style="endArrow=none;html=1;rounded=0;entryX=0;entryY=0.5;entryDx=0;entryDy=0;exitX=1;exitY=0.5;exitDx=0;exitDy=0;" edge="1" parent="1" source="GVv9ok4yRNijuJ_Tkm2T-1" target="GVv9ok4yRNijuJ_Tkm2T-108">
          <mxGeometry width="50" height="50" relative="1" as="geometry">
            <mxPoint x="340" y="-695" as="sourcePoint" />
            <mxPoint x="160" y="-688" as="targetPoint" />
          </mxGeometry>
        </mxCell>
        <mxCell id="GVv9ok4yRNijuJ_Tkm2T-111" value="" style="endArrow=none;html=1;rounded=0;entryX=1;entryY=0.5;entryDx=0;entryDy=0;exitX=0;exitY=0.5;exitDx=0;exitDy=0;" edge="1" parent="1" source="GVv9ok4yRNijuJ_Tkm2T-107" target="GVv9ok4yRNijuJ_Tkm2T-77">
          <mxGeometry width="50" height="50" relative="1" as="geometry">
            <mxPoint x="350" y="-685" as="sourcePoint" />
            <mxPoint x="170" y="-678" as="targetPoint" />
          </mxGeometry>
        </mxCell>
        <mxCell id="GVv9ok4yRNijuJ_Tkm2T-112" value="" style="endArrow=none;html=1;rounded=0;entryX=1;entryY=0.5;entryDx=0;entryDy=0;exitX=0;exitY=0.5;exitDx=0;exitDy=0;" edge="1" parent="1" source="GVv9ok4yRNijuJ_Tkm2T-2" target="GVv9ok4yRNijuJ_Tkm2T-107">
          <mxGeometry width="50" height="50" relative="1" as="geometry">
            <mxPoint x="360" y="-675" as="sourcePoint" />
            <mxPoint x="180" y="-668" as="targetPoint" />
          </mxGeometry>
        </mxCell>
        <mxCell id="GVv9ok4yRNijuJ_Tkm2T-113" value="" style="endArrow=none;html=1;rounded=0;entryX=1;entryY=1;entryDx=0;entryDy=0;exitX=0;exitY=0.25;exitDx=0;exitDy=0;" edge="1" parent="1" source="GVv9ok4yRNijuJ_Tkm2T-77" target="GVv9ok4yRNijuJ_Tkm2T-78">
          <mxGeometry width="50" height="50" relative="1" as="geometry">
            <mxPoint x="370" y="-490" as="sourcePoint" />
            <mxPoint x="420" y="-540" as="targetPoint" />
          </mxGeometry>
        </mxCell>
        <mxCell id="GVv9ok4yRNijuJ_Tkm2T-114" value="" style="endArrow=none;html=1;rounded=0;entryX=0.5;entryY=1;entryDx=0;entryDy=0;exitX=0.393;exitY=0.002;exitDx=0;exitDy=0;exitPerimeter=0;" edge="1" parent="1" source="GVv9ok4yRNijuJ_Tkm2T-77" target="GVv9ok4yRNijuJ_Tkm2T-101">
          <mxGeometry width="50" height="50" relative="1" as="geometry">
            <mxPoint x="360" y="-730" as="sourcePoint" />
            <mxPoint x="295" y="-740" as="targetPoint" />
          </mxGeometry>
        </mxCell>
        <mxCell id="GVv9ok4yRNijuJ_Tkm2T-115" value="" style="endArrow=none;html=1;rounded=0;entryX=0.75;entryY=0;entryDx=0;entryDy=0;exitX=0;exitY=1;exitDx=0;exitDy=0;" edge="1" parent="1" source="GVv9ok4yRNijuJ_Tkm2T-102" target="GVv9ok4yRNijuJ_Tkm2T-77">
          <mxGeometry width="50" height="50" relative="1" as="geometry">
            <mxPoint x="350" y="-700" as="sourcePoint" />
            <mxPoint x="305" y="-730" as="targetPoint" />
          </mxGeometry>
        </mxCell>
        <mxCell id="GVv9ok4yRNijuJ_Tkm2T-116" value="" style="endArrow=none;html=1;rounded=0;exitX=0.75;exitY=1;exitDx=0;exitDy=0;entryX=0.5;entryY=0;entryDx=0;entryDy=0;" edge="1" parent="1" source="GVv9ok4yRNijuJ_Tkm2T-77" target="GVv9ok4yRNijuJ_Tkm2T-103">
          <mxGeometry width="50" height="50" relative="1" as="geometry">
            <mxPoint x="360" y="-690" as="sourcePoint" />
            <mxPoint x="433" y="-634" as="targetPoint" />
          </mxGeometry>
        </mxCell>
        <mxCell id="GVv9ok4yRNijuJ_Tkm2T-117" value="" style="endArrow=none;html=1;rounded=0;exitX=0.25;exitY=1;exitDx=0;exitDy=0;entryX=0.5;entryY=0;entryDx=0;entryDy=0;" edge="1" parent="1" source="GVv9ok4yRNijuJ_Tkm2T-77" target="GVv9ok4yRNijuJ_Tkm2T-104">
          <mxGeometry width="50" height="50" relative="1" as="geometry">
            <mxPoint x="370" y="-680" as="sourcePoint" />
            <mxPoint x="340" y="-650" as="targetPoint" />
          </mxGeometry>
        </mxCell>
        <mxCell id="GVv9ok4yRNijuJ_Tkm2T-119" value="alcohol" style="ellipse;whiteSpace=wrap;html=1;fillColor=#f8cecc;strokeColor=#b85450;" vertex="1" parent="1">
          <mxGeometry x="715" y="-695" width="90" height="40" as="geometry" />
        </mxCell>
        <mxCell id="GVv9ok4yRNijuJ_Tkm2T-120" value="" style="endArrow=none;html=1;rounded=0;exitX=1;exitY=0.5;exitDx=0;exitDy=0;entryX=0;entryY=0.75;entryDx=0;entryDy=0;" edge="1" parent="1" source="GVv9ok4yRNijuJ_Tkm2T-119" target="GVv9ok4yRNijuJ_Tkm2T-2">
          <mxGeometry width="50" height="50" relative="1" as="geometry">
            <mxPoint x="865" y="-750" as="sourcePoint" />
            <mxPoint x="880" y="-725" as="targetPoint" />
          </mxGeometry>
        </mxCell>
        <mxCell id="GVv9ok4yRNijuJ_Tkm2T-121" value="Alcohol" style="rounded=0;whiteSpace=wrap;html=1;fillColor=#dae8fc;strokeColor=#6c8ebf;" vertex="1" parent="1">
          <mxGeometry x="1090" y="277.5" width="120" height="60" as="geometry" />
        </mxCell>
        <mxCell id="GVv9ok4yRNijuJ_Tkm2T-122" value="&lt;u&gt;alcohol_id&lt;/u&gt;" style="ellipse;whiteSpace=wrap;html=1;fillColor=#d5e8d4;strokeColor=#82b366;" vertex="1" parent="1">
          <mxGeometry x="1020" y="227.5" width="90" height="40" as="geometry" />
        </mxCell>
        <mxCell id="GVv9ok4yRNijuJ_Tkm2T-123" value="name" style="ellipse;whiteSpace=wrap;html=1;fillColor=#d5e8d4;strokeColor=#82b366;" vertex="1" parent="1">
          <mxGeometry x="1110" y="227.5" width="90" height="40" as="geometry" />
        </mxCell>
        <mxCell id="GVv9ok4yRNijuJ_Tkm2T-127" value="amount" style="ellipse;whiteSpace=wrap;html=1;fillColor=#d5e8d4;strokeColor=#82b366;" vertex="1" parent="1">
          <mxGeometry x="830" y="-280" width="90" height="40" as="geometry" />
        </mxCell>
        <mxCell id="GVv9ok4yRNijuJ_Tkm2T-128" value="flavour" style="ellipse;whiteSpace=wrap;html=1;fillColor=#d5e8d4;strokeColor=#82b366;" vertex="1" parent="1">
          <mxGeometry x="820" y="-102.5" width="90" height="40" as="geometry" />
        </mxCell>
        <mxCell id="GVv9ok4yRNijuJ_Tkm2T-129" value="flavour" style="ellipse;whiteSpace=wrap;html=1;fillColor=#d5e8d4;strokeColor=#82b366;" vertex="1" parent="1">
          <mxGeometry x="1130" y="-102.5" width="90" height="40" as="geometry" />
        </mxCell>
        <mxCell id="GVv9ok4yRNijuJ_Tkm2T-130" value="flavour" style="ellipse;whiteSpace=wrap;html=1;fillColor=#d5e8d4;strokeColor=#82b366;" vertex="1" parent="1">
          <mxGeometry x="820" y="76.25" width="90" height="40" as="geometry" />
        </mxCell>
        <mxCell id="GVv9ok4yRNijuJ_Tkm2T-131" value="litres" style="ellipse;whiteSpace=wrap;html=1;fillColor=#d5e8d4;strokeColor=#82b366;" vertex="1" parent="1">
          <mxGeometry x="870" y="-57.5" width="90" height="40" as="geometry" />
        </mxCell>
        <mxCell id="GVv9ok4yRNijuJ_Tkm2T-132" value="litres" style="ellipse;whiteSpace=wrap;html=1;fillColor=#d5e8d4;strokeColor=#82b366;" vertex="1" parent="1">
          <mxGeometry x="1200" y="-62.5" width="90" height="40" as="geometry" />
        </mxCell>
        <mxCell id="GVv9ok4yRNijuJ_Tkm2T-133" value="litres" style="ellipse;whiteSpace=wrap;html=1;fillColor=#d5e8d4;strokeColor=#82b366;" vertex="1" parent="1">
          <mxGeometry x="1210" y="238.75" width="90" height="40" as="geometry" />
        </mxCell>
        <mxCell id="GVv9ok4yRNijuJ_Tkm2T-134" value="litres" style="ellipse;whiteSpace=wrap;html=1;fillColor=#d5e8d4;strokeColor=#82b366;" vertex="1" parent="1">
          <mxGeometry x="900" y="110" width="90" height="40" as="geometry" />
        </mxCell>
        <mxCell id="GVv9ok4yRNijuJ_Tkm2T-135" value="1" style="text;html=1;strokeColor=none;fillColor=none;align=center;verticalAlign=middle;whiteSpace=wrap;rounded=0;" vertex="1" parent="1">
          <mxGeometry x="-110" y="-730" width="60" height="30" as="geometry" />
        </mxCell>
        <mxCell id="GVv9ok4yRNijuJ_Tkm2T-136" value="M" style="text;html=1;strokeColor=none;fillColor=none;align=center;verticalAlign=middle;whiteSpace=wrap;rounded=0;" vertex="1" parent="1">
          <mxGeometry x="450" y="-735" width="60" height="30" as="geometry" />
        </mxCell>
        <mxCell id="GVv9ok4yRNijuJ_Tkm2T-137" value="1" style="text;html=1;strokeColor=none;fillColor=none;align=center;verticalAlign=middle;whiteSpace=wrap;rounded=0;" vertex="1" parent="1">
          <mxGeometry x="780" y="-735" width="60" height="30" as="geometry" />
        </mxCell>
        <mxCell id="GVv9ok4yRNijuJ_Tkm2T-138" value="M" style="text;html=1;strokeColor=none;fillColor=none;align=center;verticalAlign=middle;whiteSpace=wrap;rounded=0;" vertex="1" parent="1">
          <mxGeometry x="265" y="-735" width="60" height="30" as="geometry" />
        </mxCell>
      </root>
    </mxGraphModel>
  </diagram>
</mxfile>
